<svg width="275" height="69" viewBox="0 0 275 69" fill="none" xmlns="http://www.w3.org/2000/svg">
<rect width="275" height="69" fill="#1E1E1E"/>
<path d="M41.46 28.83C41.46 29.93 41.18 30.98 40.62 31.98C40.08 32.98 39.34 33.86 38.4 34.62C37.48 35.36 36.39 35.95 35.13 36.39C33.89 36.83 32.57 37.05 31.17 37.05C30.67 37.05 30.27 36.99 29.97 36.87C29.69 36.73 29.37 36.47 29.01 36.09C28.01 38.27 27.19 40.28 26.55 42.12C25.93 43.94 25.44 45.71 25.08 47.43C24.32 47.25 23.7 46.93 23.22 46.47C22.74 46.03 22.3 45.47 21.9 44.79C22.1 44.41 22.34 43.91 22.62 43.29C22.9 42.67 23.24 41.91 23.64 41.01C24.04 40.09 24.5 39 25.02 37.74C25.56 36.46 26.19 34.97 26.91 33.27C27.23 32.49 27.51 31.81 27.75 31.23C27.99 30.65 28.2 30.11 28.38 29.61C28.56 29.09 28.72 28.58 28.86 28.08C29.02 27.58 29.18 27.03 29.34 26.43C28.4 26.73 27.53 27.08 26.73 27.48C25.95 27.88 25.3 28.3 24.78 28.74C24.6 28.62 24.41 28.44 24.21 28.2C24.03 27.96 23.86 27.7 23.7 27.42C23.54 27.12 23.4 26.82 23.28 26.52C23.16 26.22 23.09 25.95 23.07 25.71C23.65 25.31 24.37 24.94 25.23 24.6C26.09 24.26 27.01 23.97 27.99 23.73C28.97 23.47 29.98 23.27 31.02 23.13C32.08 22.99 33.09 22.92 34.05 22.92C35.19 22.92 36.22 23.07 37.14 23.37C38.06 23.65 38.84 24.05 39.48 24.57C40.12 25.09 40.61 25.71 40.95 26.43C41.29 27.15 41.46 27.95 41.46 28.83ZM36.12 25.23C35.36 25.23 34.58 25.29 33.78 25.41L34.14 25.95C33.94 26.21 33.69 26.6 33.39 27.12C33.09 27.64 32.76 28.27 32.4 29.01C32.04 29.73 31.64 30.54 31.2 31.44C30.78 32.34 30.33 33.29 29.85 34.29C31.41 34.29 32.83 34.15 34.11 33.87C35.39 33.57 36.48 33.17 37.38 32.67C38.3 32.15 39.01 31.55 39.51 30.87C40.03 30.19 40.29 29.46 40.29 28.68C40.29 27.64 39.94 26.81 39.24 26.19C38.54 25.55 37.5 25.23 36.12 25.23ZM49.7756 32.88C49.9756 32.88 50.2056 32.92 50.4656 33C50.7456 33.06 50.9956 33.15 51.2156 33.27C51.4356 33.37 51.6156 33.48 51.7556 33.6C51.9156 33.72 51.9956 33.83 51.9956 33.93C51.5956 34.77 51.2256 35.62 50.8856 36.48C50.5456 37.32 50.2556 38.13 50.0156 38.91C49.7756 39.69 49.5856 40.42 49.4456 41.1C49.3256 41.78 49.2656 42.37 49.2656 42.87C49.2656 43.43 49.3256 43.9 49.4456 44.28C49.5656 44.64 49.7656 44.9 50.0456 45.06C49.8056 45.22 49.4956 45.35 49.1156 45.45C48.7356 45.55 48.3956 45.6 48.0956 45.6C47.0156 45.6 46.4756 44.86 46.4756 43.38C46.4756 42.24 46.8556 40.68 47.6156 38.7C47.2156 39.62 46.7556 40.49 46.2356 41.31C45.7156 42.11 45.1856 42.82 44.6456 43.44C44.1056 44.06 43.5556 44.57 42.9956 44.97C42.4556 45.35 41.9556 45.58 41.4956 45.66C40.7556 45.62 40.1556 45.27 39.6956 44.61C39.2356 43.93 39.0056 43.07 39.0056 42.03C39.0056 40.91 39.2456 39.73 39.7256 38.49C40.2056 37.25 40.8156 36.1 41.5556 35.04C42.3156 33.98 43.1356 33.1 44.0156 32.4C44.8956 31.68 45.7456 31.3 46.5656 31.26C46.7656 31.32 46.9856 31.44 47.2256 31.62C47.4856 31.8 47.7256 32.01 47.9456 32.25C48.1856 32.49 48.3856 32.74 48.5456 33C48.7056 33.24 48.7956 33.45 48.8156 33.63C48.0156 33.75 47.1856 34.14 46.3256 34.8C45.4856 35.46 44.7156 36.26 44.0156 37.2C43.3356 38.12 42.7756 39.11 42.3356 40.17C41.8956 41.23 41.6756 42.22 41.6756 43.14C41.6756 43.52 41.8156 43.76 42.0956 43.86C42.6756 43.74 43.3456 43.25 44.1056 42.39C44.8656 41.51 45.7856 40.16 46.8656 38.34C47.0656 37.98 47.2856 37.58 47.5256 37.14C47.7856 36.7 48.0456 36.24 48.3056 35.76C48.5656 35.28 48.8156 34.8 49.0556 34.32C49.3156 33.82 49.5556 33.34 49.7756 32.88ZM63.7209 32.88C63.9209 32.88 64.1509 32.92 64.4109 33C64.6909 33.06 64.9409 33.15 65.1609 33.27C65.3809 33.37 65.5609 33.48 65.7009 33.6C65.8609 33.72 65.9409 33.83 65.9409 33.93C65.5409 34.77 65.1709 35.62 64.8309 36.48C64.4909 37.32 64.2009 38.13 63.9609 38.91C63.7209 39.69 63.5309 40.42 63.3909 41.1C63.2709 41.78 63.2109 42.37 63.2109 42.87C63.2109 43.43 63.2709 43.9 63.3909 44.28C63.5109 44.64 63.7109 44.9 63.9909 45.06C63.7509 45.22 63.4409 45.35 63.0609 45.45C62.6809 45.55 62.3409 45.6 62.0409 45.6C60.9609 45.6 60.4209 44.86 60.4209 43.38C60.4209 42.24 60.8009 40.68 61.5609 38.7C61.1609 39.62 60.7009 40.49 60.1809 41.31C59.6609 42.11 59.1309 42.82 58.5909 43.44C58.0509 44.06 57.5009 44.57 56.9409 44.97C56.4009 45.35 55.9009 45.58 55.4409 45.66C54.7009 45.62 54.1009 45.27 53.6409 44.61C53.1809 43.93 52.9509 43.07 52.9509 42.03C52.9509 40.91 53.1909 39.73 53.6709 38.49C54.1509 37.25 54.7609 36.1 55.5009 35.04C56.2609 33.98 57.0809 33.1 57.9609 32.4C58.8409 31.68 59.6909 31.3 60.5109 31.26C60.7109 31.32 60.9309 31.44 61.1709 31.62C61.4309 31.8 61.6709 32.01 61.8909 32.25C62.1309 32.49 62.3309 32.74 62.4909 33C62.6509 33.24 62.7409 33.45 62.7609 33.63C61.9609 33.75 61.1309 34.14 60.2709 34.8C59.4309 35.46 58.6609 36.26 57.9609 37.2C57.2809 38.12 56.7209 39.11 56.2809 40.17C55.8409 41.23 55.6209 42.22 55.6209 43.14C55.6209 43.52 55.7609 43.76 56.0409 43.86C56.6209 43.74 57.2909 43.25 58.0509 42.39C58.8109 41.51 59.7309 40.16 60.8109 38.34C61.0109 37.98 61.2309 37.58 61.4709 37.14C61.7309 36.7 61.9909 36.24 62.2509 35.76C62.5109 35.28 62.7609 34.8 63.0009 34.32C63.2609 33.82 63.5009 33.34 63.7209 32.88ZM66.7427 44.4C66.8427 43.82 67.0127 43.06 67.2527 42.12C67.5127 41.16 67.8127 40.15 68.1527 39.09C68.4927 38.01 68.8527 36.93 69.2327 35.85C69.6127 34.77 69.9827 33.8 70.3427 32.94C70.6027 32.32 70.8327 31.84 71.0327 31.5C71.2327 31.14 71.4527 30.84 71.6927 30.6C71.9727 30.64 72.2627 30.71 72.5627 30.81C72.8627 30.91 73.1527 31.03 73.4327 31.17C73.7127 31.31 73.9627 31.46 74.1827 31.62C74.4027 31.76 74.5727 31.9 74.6927 32.04C74.1527 32.68 73.6727 33.41 73.2527 34.23C72.8527 35.05 72.4427 36.1 72.0227 37.38C73.1027 36.42 74.0527 35.5 74.8727 34.62C75.7127 33.74 76.4927 32.76 77.2127 31.68C77.3327 31.58 77.5427 31.53 77.8427 31.53C78.1227 31.53 78.3927 31.58 78.6527 31.68C78.9127 31.76 79.0927 31.88 79.1927 32.04C78.8327 33 78.6527 33.95 78.6527 34.89C78.6527 35.77 78.7827 36.43 79.0427 36.87C79.0227 36.99 78.8827 37.22 78.6227 37.56C78.3827 37.9 78.1127 38.22 77.8127 38.52C77.2727 38.24 76.7927 37.86 76.3727 37.38C75.9527 36.88 75.6427 36.34 75.4427 35.76C74.5027 36.42 73.7027 37.07 73.0427 37.71C72.3827 38.33 71.8127 39.03 71.3327 39.81C70.8727 40.57 70.4727 41.45 70.1327 42.45C69.8127 43.45 69.5027 44.64 69.2027 46.02C69.0227 46 68.8027 45.93 68.5427 45.81C68.3027 45.71 68.0527 45.58 67.7927 45.42C67.5527 45.26 67.3327 45.09 67.1327 44.91C66.9327 44.73 66.8027 44.56 66.7427 44.4ZM89.4436 33.06C89.4236 33.44 89.3536 33.84 89.2336 34.26C89.1336 34.66 89.0036 35.03 88.8436 35.37C88.6836 35.69 88.5136 35.96 88.3336 36.18C88.1536 36.4 87.9836 36.51 87.8236 36.51C87.6036 36.49 87.4736 36.34 87.4336 36.06C87.4336 36 87.4536 35.91 87.4936 35.79C87.5536 35.65 87.6136 35.5 87.6736 35.34C87.7336 35.18 87.7836 35.02 87.8236 34.86C87.8836 34.7 87.9136 34.56 87.9136 34.44C87.9136 34.16 87.8436 33.93 87.7036 33.75C87.5836 33.55 87.4136 33.45 87.1936 33.45C86.3936 33.45 85.7836 33.95 85.3636 34.95C84.9436 35.95 84.7336 37.42 84.7336 39.36C84.7336 39.56 84.7436 39.68 84.7636 39.72C85.1836 39.7 85.5536 39.69 85.8736 39.69C86.2136 39.67 86.5436 39.66 86.8636 39.66C86.8836 39.7 86.8936 39.78 86.8936 39.9C86.8936 40.08 86.8536 40.21 86.7736 40.29C86.3136 40.39 85.9436 40.48 85.6636 40.56C85.4036 40.62 85.2036 40.68 85.0636 40.74C84.9236 40.8 84.8336 40.87 84.7936 40.95C84.7736 41.01 84.7636 41.1 84.7636 41.22C84.7636 41.38 84.7636 41.54 84.7636 41.7C84.7836 41.86 84.7936 42.06 84.7936 42.3C84.7936 43.98 84.3336 45.33 83.4136 46.35C82.5136 47.37 81.2536 47.96 79.6336 48.12C79.3536 48.1 79.0636 48.02 78.7636 47.88C78.4636 47.74 78.1736 47.56 77.8936 47.34C77.6336 47.12 77.4036 46.87 77.2036 46.59C77.0036 46.33 76.8636 46.06 76.7836 45.78C76.7836 45.02 76.9436 44.3 77.2636 43.62C77.5836 42.92 78.0136 42.31 78.5536 41.79C79.1136 41.25 79.7636 40.82 80.5036 40.5C81.2636 40.16 82.0836 39.96 82.9636 39.9C82.9636 39.4 82.9136 38.91 82.8136 38.43C82.7136 37.95 82.6036 37.49 82.4836 37.05C82.3836 36.59 82.2836 36.15 82.1836 35.73C82.0836 35.29 82.0336 34.86 82.0336 34.44C82.0336 33.9 82.1436 33.37 82.3636 32.85C82.5836 32.31 82.8736 31.82 83.2336 31.38C83.5936 30.92 84.0136 30.53 84.4936 30.21C84.9736 29.89 85.4736 29.67 85.9936 29.55C86.2136 29.61 86.5036 29.79 86.8636 30.09C87.2436 30.37 87.6136 30.69 87.9736 31.05C88.3336 31.41 88.6536 31.78 88.9336 32.16C89.2136 32.52 89.3836 32.82 89.4436 33.06ZM79.5436 46.74C80.0236 46.54 80.4736 46.25 80.8936 45.87C81.3336 45.49 81.7136 45.06 82.0336 44.58C82.3536 44.1 82.6036 43.59 82.7836 43.05C82.9836 42.51 83.0836 41.98 83.0836 41.46C82.6836 41.52 82.2436 41.71 81.7636 42.03C81.2836 42.33 80.8336 42.7 80.4136 43.14C79.9936 43.56 79.6436 44 79.3636 44.46C79.0836 44.92 78.9436 45.32 78.9436 45.66C78.9436 46.1 79.1436 46.46 79.5436 46.74ZM89.4347 44.49C89.4347 43.79 89.5047 42.97 89.6447 42.03C89.7847 41.07 89.9847 40.05 90.2447 38.97C90.5247 37.89 90.8447 36.76 91.2047 35.58C91.5847 34.4 92.0047 33.22 92.4647 32.04C92.8647 30.98 93.3247 29.91 93.8447 28.83C94.3847 27.75 94.9647 26.69 95.5847 25.65C96.2047 24.61 96.8447 23.62 97.5047 22.68C98.1847 21.74 98.8647 20.88 99.5447 20.1C99.8647 20.1 100.205 20.14 100.565 20.22C100.945 20.3 101.305 20.41 101.645 20.55C102.005 20.67 102.325 20.82 102.605 21C102.905 21.18 103.145 21.36 103.325 21.54C101.825 23.08 100.475 24.64 99.2747 26.22C98.0747 27.78 97.1247 29.25 96.4247 30.63C96.0447 31.39 95.6947 32.1 95.3747 32.76C95.0747 33.42 94.7947 34.08 94.5347 34.74C94.2747 35.38 94.0347 36.03 93.8147 36.69C93.6147 37.33 93.4247 38.01 93.2447 38.73C97.0847 33.83 99.9347 31.38 101.795 31.38C102.315 31.38 102.875 31.55 103.475 31.89C104.075 32.23 104.605 32.69 105.065 33.27C104.445 33.95 103.805 34.77 103.145 35.73C102.485 36.69 101.875 37.66 101.315 38.64C100.775 39.6 100.325 40.5 99.9647 41.34C99.6247 42.16 99.4547 42.77 99.4547 43.17C99.4547 43.37 99.4847 43.51 99.5447 43.59C99.6047 43.65 99.7347 43.68 99.9347 43.68C100.235 43.68 100.475 43.64 100.655 43.56C100.835 43.48 100.945 43.44 100.985 43.44C101.085 43.6 101.145 43.71 101.165 43.77C101.185 43.83 101.195 43.88 101.195 43.92C101.195 44 101.075 44.12 100.835 44.28C100.595 44.42 100.305 44.57 99.9647 44.73C99.6447 44.87 99.3247 45 99.0047 45.12C98.6847 45.24 98.4447 45.3 98.2847 45.3C98.0847 45.3 97.8847 45.24 97.6847 45.12C97.4847 45.02 97.3047 44.88 97.1447 44.7C97.0047 44.52 96.8847 44.32 96.7847 44.1C96.7047 43.88 96.6647 43.65 96.6647 43.41C96.6647 43.11 96.7447 42.67 96.9047 42.09C97.0847 41.49 97.3247 40.8 97.6247 40.02C97.9247 39.22 98.2847 38.35 98.7047 37.41C99.1247 36.47 99.5747 35.51 100.055 34.53C100.055 34.45 100.015 34.41 99.9347 34.41C99.8747 34.41 99.7147 34.49 99.4547 34.65C99.2147 34.81 98.9847 34.97 98.7647 35.13C98.0447 35.67 97.3147 36.34 96.5747 37.14C95.8547 37.92 95.1447 38.78 94.4447 39.72C93.7647 40.66 93.1147 41.66 92.4947 42.72C91.8947 43.76 91.3747 44.81 90.9347 45.87C90.8747 46.01 90.7847 46.14 90.6647 46.26C90.5447 46.38 90.4447 46.44 90.3647 46.44C90.3047 46.44 90.2147 46.37 90.0947 46.23C89.9947 46.09 89.8947 45.91 89.7947 45.69C89.7147 45.49 89.6347 45.28 89.5547 45.06C89.4747 44.84 89.4347 44.65 89.4347 44.49ZM124.621 47.22C124.581 47.24 124.541 47.25 124.501 47.25C124.461 47.25 124.381 47.25 124.261 47.25C123.981 47.25 123.651 47.2 123.271 47.1C122.911 47.02 122.551 46.91 122.191 46.77C121.851 46.65 121.551 46.51 121.291 46.35C121.051 46.19 120.901 46.05 120.841 45.93C120.821 45.65 120.811 45.36 120.811 45.06C120.811 44.76 120.811 44.47 120.811 44.19C120.811 41.95 120.971 39.61 121.291 37.17C121.631 34.73 122.181 32.09 122.941 29.25C123.021 28.97 123.101 28.62 123.181 28.2C123.281 27.76 123.381 27.29 123.481 26.79C123.001 27.17 122.431 27.78 121.771 28.62C121.111 29.44 120.411 30.42 119.671 31.56C118.951 32.68 118.221 33.92 117.481 35.28C116.761 36.62 116.101 37.99 115.501 39.39C114.901 40.77 114.381 42.14 113.941 43.5C113.521 44.86 113.261 46.12 113.161 47.28C112.201 47 111.531 46.72 111.151 46.44C110.791 46.16 110.611 45.82 110.611 45.42C110.611 45.06 110.721 44.55 110.941 43.89C111.161 43.23 111.471 42.45 111.871 41.55C112.271 40.65 112.761 39.65 113.341 38.55C113.921 37.43 114.561 36.23 115.261 34.95C116.061 33.49 116.841 32.12 117.601 30.84C118.381 29.56 119.141 28.4 119.881 27.36C120.621 26.32 121.341 25.42 122.041 24.66C122.761 23.9 123.471 23.32 124.171 22.92C124.451 22.92 124.821 22.99 125.281 23.13C125.761 23.27 126.221 23.44 126.661 23.64C127.121 23.84 127.521 24.05 127.861 24.27C128.221 24.47 128.421 24.64 128.461 24.78C128.181 25.34 127.851 26.18 127.471 27.3C127.091 28.42 126.701 29.69 126.301 31.11C125.921 32.53 125.551 34.04 125.191 35.64C124.851 37.22 124.581 38.74 124.381 40.2C124.841 39.1 125.371 37.96 125.971 36.78C126.591 35.58 127.241 34.4 127.921 33.24C128.601 32.06 129.291 30.92 129.991 29.82C130.711 28.72 131.411 27.72 132.091 26.82C132.771 25.9 133.401 25.1 133.981 24.42C134.581 23.74 135.111 23.24 135.571 22.92C135.851 22.92 136.221 22.99 136.681 23.13C137.161 23.27 137.621 23.44 138.061 23.64C138.521 23.84 138.921 24.05 139.261 24.27C139.621 24.47 139.821 24.64 139.861 24.78C139.221 25.92 138.661 27.31 138.181 28.95C137.701 30.59 137.291 32.31 136.951 34.11C136.631 35.91 136.381 37.7 136.201 39.48C136.041 41.24 135.961 42.82 135.961 44.22C135.961 44.68 135.961 45.16 135.961 45.66C135.961 46.16 135.981 46.68 136.021 47.22C135.741 47.22 135.401 47.18 135.001 47.1C134.621 47.04 134.241 46.95 133.861 46.83C133.501 46.71 133.171 46.57 132.871 46.41C132.571 46.27 132.361 46.11 132.241 45.93C132.221 45.65 132.211 45.36 132.211 45.06C132.211 44.76 132.211 44.47 132.211 44.19C132.211 41.95 132.371 39.61 132.691 37.17C133.031 34.73 133.581 32.09 134.341 29.25C134.421 28.97 134.511 28.59 134.611 28.11C134.711 27.63 134.811 27.13 134.911 26.61C134.351 26.89 133.711 27.43 132.991 28.23C132.291 29.01 131.571 29.97 130.831 31.11C130.111 32.23 129.391 33.48 128.671 34.86C127.971 36.24 127.331 37.65 126.751 39.09C126.191 40.51 125.711 41.93 125.311 43.35C124.931 44.75 124.701 46.04 124.621 47.22ZM149.971 32.88C150.171 32.88 150.401 32.92 150.661 33C150.941 33.06 151.191 33.15 151.411 33.27C151.631 33.37 151.811 33.48 151.951 33.6C152.111 33.72 152.191 33.83 152.191 33.93C151.791 34.77 151.421 35.62 151.081 36.48C150.741 37.32 150.451 38.13 150.211 38.91C149.971 39.69 149.781 40.42 149.641 41.1C149.521 41.78 149.461 42.37 149.461 42.87C149.461 43.43 149.521 43.9 149.641 44.28C149.761 44.64 149.961 44.9 150.241 45.06C150.001 45.22 149.691 45.35 149.311 45.45C148.931 45.55 148.591 45.6 148.291 45.6C147.211 45.6 146.671 44.86 146.671 43.38C146.671 42.24 147.051 40.68 147.811 38.7C147.411 39.62 146.951 40.49 146.431 41.31C145.911 42.11 145.381 42.82 144.841 43.44C144.301 44.06 143.751 44.57 143.191 44.97C142.651 45.35 142.151 45.58 141.691 45.66C140.951 45.62 140.351 45.27 139.891 44.61C139.431 43.93 139.201 43.07 139.201 42.03C139.201 40.91 139.441 39.73 139.921 38.49C140.401 37.25 141.011 36.1 141.751 35.04C142.511 33.98 143.331 33.1 144.211 32.4C145.091 31.68 145.941 31.3 146.761 31.26C146.961 31.32 147.181 31.44 147.421 31.62C147.681 31.8 147.921 32.01 148.141 32.25C148.381 32.49 148.581 32.74 148.741 33C148.901 33.24 148.991 33.45 149.011 33.63C148.211 33.75 147.381 34.14 146.521 34.8C145.681 35.46 144.911 36.26 144.211 37.2C143.531 38.12 142.971 39.11 142.531 40.17C142.091 41.23 141.871 42.22 141.871 43.14C141.871 43.52 142.011 43.76 142.291 43.86C142.871 43.74 143.541 43.25 144.301 42.39C145.061 41.51 145.981 40.16 147.061 38.34C147.261 37.98 147.481 37.58 147.721 37.14C147.981 36.7 148.241 36.24 148.501 35.76C148.761 35.28 149.011 34.8 149.251 34.32C149.511 33.82 149.751 33.34 149.971 32.88ZM154.985 33.51C154.885 33.39 154.795 33.14 154.715 32.76C154.635 32.36 154.595 32.02 154.595 31.74C155.115 31.78 155.615 31.82 156.095 31.86C156.575 31.88 157.015 31.9 157.415 31.92C157.715 31.32 158.035 30.73 158.375 30.15C158.735 29.55 159.075 29.01 159.395 28.53C159.735 28.03 160.045 27.61 160.325 27.27C160.625 26.93 160.855 26.71 161.015 26.61C161.215 26.61 161.465 26.65 161.765 26.73C162.085 26.79 162.405 26.88 162.725 27C163.045 27.1 163.335 27.21 163.595 27.33C163.855 27.45 164.035 27.57 164.135 27.69C163.535 28.45 163.015 29.16 162.575 29.82C162.155 30.46 161.695 31.2 161.195 32.04C161.595 32.04 161.995 32.03 162.395 32.01C162.815 31.99 163.235 31.96 163.655 31.92C163.755 32.02 163.835 32.15 163.895 32.31C163.955 32.45 163.985 32.6 163.985 32.76C163.005 33.12 161.815 33.32 160.415 33.36C159.915 34.32 159.465 35.28 159.065 36.24C158.685 37.18 158.355 38.09 158.075 38.97C157.815 39.85 157.605 40.68 157.445 41.46C157.305 42.24 157.235 42.94 157.235 43.56C157.235 44.44 157.565 44.93 158.225 45.03C158.825 44.95 159.395 44.8 159.935 44.58C160.475 44.36 160.955 44.08 161.375 43.74C161.495 43.92 161.565 44.07 161.585 44.19C161.465 44.37 161.255 44.58 160.955 44.82C160.675 45.06 160.365 45.29 160.025 45.51C159.685 45.75 159.355 45.95 159.035 46.11C158.715 46.27 158.475 46.36 158.315 46.38C157.815 46.36 157.315 46.25 156.815 46.05C156.315 45.85 155.855 45.6 155.435 45.3C155.035 45 154.705 44.67 154.445 44.31C154.185 43.93 154.055 43.56 154.055 43.2C154.055 42.72 154.115 42.12 154.235 41.4C154.375 40.66 154.565 39.86 154.805 39C155.045 38.14 155.325 37.24 155.645 36.3C155.965 35.36 156.315 34.43 156.695 33.51H154.985ZM163.042 44.4C163.142 43.82 163.312 43.06 163.552 42.12C163.812 41.16 164.112 40.15 164.452 39.09C164.792 38.01 165.152 36.93 165.532 35.85C165.912 34.77 166.282 33.8 166.642 32.94C166.902 32.32 167.132 31.84 167.332 31.5C167.532 31.14 167.752 30.84 167.992 30.6C168.272 30.64 168.562 30.71 168.862 30.81C169.162 30.91 169.452 31.03 169.732 31.17C170.012 31.31 170.262 31.46 170.482 31.62C170.702 31.76 170.872 31.9 170.992 32.04C170.452 32.68 169.972 33.41 169.552 34.23C169.152 35.05 168.742 36.1 168.322 37.38C169.402 36.42 170.352 35.5 171.172 34.62C172.012 33.74 172.792 32.76 173.512 31.68C173.632 31.58 173.842 31.53 174.142 31.53C174.422 31.53 174.692 31.58 174.952 31.68C175.212 31.76 175.392 31.88 175.492 32.04C175.132 33 174.952 33.95 174.952 34.89C174.952 35.77 175.082 36.43 175.342 36.87C175.322 36.99 175.182 37.22 174.922 37.56C174.682 37.9 174.412 38.22 174.112 38.52C173.572 38.24 173.092 37.86 172.672 37.38C172.252 36.88 171.942 36.34 171.742 35.76C170.802 36.42 170.002 37.07 169.342 37.71C168.682 38.33 168.112 39.03 167.632 39.81C167.172 40.57 166.772 41.45 166.432 42.45C166.112 43.45 165.802 44.64 165.502 46.02C165.322 46 165.102 45.93 164.842 45.81C164.602 45.71 164.352 45.58 164.092 45.42C163.852 45.26 163.632 45.09 163.432 44.91C163.232 44.73 163.102 44.56 163.042 44.4ZM175.891 42.99C175.891 42.81 175.901 42.59 175.921 42.33C175.961 42.05 176.021 41.69 176.101 41.25C176.181 40.79 176.281 40.24 176.401 39.6C176.541 38.96 176.711 38.19 176.911 37.29C176.951 37.09 177.041 36.77 177.181 36.33C177.321 35.89 177.501 35.43 177.721 34.95C177.961 34.45 178.241 33.97 178.561 33.51C178.901 33.05 179.301 32.71 179.761 32.49C180.101 32.57 180.551 32.78 181.111 33.12C181.671 33.44 182.151 33.89 182.551 34.47C182.091 34.99 181.701 35.51 181.381 36.03C181.081 36.55 180.801 37.09 180.541 37.65C180.301 38.21 180.071 38.79 179.851 39.39C179.651 39.99 179.421 40.62 179.161 41.28C178.941 41.84 178.741 42.42 178.561 43.02C178.381 43.6 178.281 44.11 178.261 44.55C178.261 44.91 178.251 45.16 178.231 45.3C178.231 45.46 178.181 45.54 178.081 45.54C178.001 45.54 177.841 45.49 177.601 45.39C177.361 45.29 177.111 45.14 176.851 44.94C176.611 44.72 176.391 44.45 176.191 44.13C175.991 43.81 175.891 43.43 175.891 42.99ZM181.621 29.97C181.621 29.85 181.651 29.67 181.711 29.43C181.611 29.33 181.521 29.18 181.441 28.98C181.381 28.78 181.351 28.6 181.351 28.44C181.351 28.26 181.371 28.02 181.411 27.72C181.471 27.4 181.541 27.06 181.621 26.7C181.701 26.34 181.801 25.97 181.921 25.59C182.041 25.19 182.161 24.83 182.281 24.51C182.521 24.51 182.811 24.58 183.151 24.72C183.511 24.84 183.871 25.01 184.231 25.23C184.591 25.43 184.921 25.66 185.221 25.92C185.521 26.16 185.751 26.39 185.911 26.61C185.691 26.83 185.401 27.14 185.041 27.54C184.681 27.92 184.331 28.33 183.991 28.77C183.651 29.19 183.341 29.59 183.061 29.97C182.781 30.35 182.601 30.62 182.521 30.78C182.281 30.74 182.071 30.64 181.891 30.48C181.711 30.3 181.621 30.13 181.621 29.97ZM200.291 35.79C199.971 35.81 199.581 36.02 199.121 36.42C198.661 36.8 198.161 37.3 197.621 37.92C197.101 38.52 196.551 39.19 195.971 39.93C195.411 40.67 194.861 41.41 194.321 42.15C193.801 42.87 193.311 43.55 192.851 44.19C192.391 44.83 192.001 45.34 191.681 45.72C191.241 45.54 190.861 45.28 190.541 44.94C190.221 44.58 189.991 44.14 189.851 43.62C189.951 43 190.091 42.36 190.271 41.7C190.451 41.02 190.681 40.32 190.961 39.6C191.261 38.88 191.621 38.13 192.041 37.35C192.481 36.55 193.011 35.71 193.631 34.83C193.331 34.85 192.921 35.07 192.401 35.49C191.881 35.89 191.321 36.42 190.721 37.08C190.121 37.72 189.501 38.45 188.861 39.27C188.221 40.07 187.621 40.86 187.061 41.64C186.321 42.68 185.701 43.59 185.201 44.37C184.721 45.15 184.371 45.61 184.151 45.75C183.631 45.37 183.271 44.96 183.071 44.52C182.871 44.08 182.721 43.59 182.621 43.05C182.641 42.57 182.711 41.97 182.831 41.25C182.971 40.53 183.161 39.79 183.401 39.03C183.861 37.57 184.451 36.12 185.171 34.68C185.911 33.24 186.621 31.92 187.301 30.72C187.861 30.84 188.361 31.03 188.801 31.29C189.261 31.55 189.741 31.93 190.241 32.43C190.041 33.05 189.731 33.71 189.311 34.41C188.891 35.09 188.451 35.81 187.991 36.57C187.531 37.33 187.111 38.11 186.731 38.91C186.351 39.71 186.101 40.52 185.981 41.34C186.541 40.54 187.201 39.62 187.961 38.58C188.741 37.54 189.531 36.56 190.331 35.64C191.151 34.72 191.961 33.94 192.761 33.3C193.561 32.66 194.281 32.34 194.921 32.34C195.161 32.34 195.421 32.38 195.701 32.46C195.981 32.54 196.241 32.64 196.481 32.76C196.721 32.88 196.921 33 197.081 33.12C197.241 33.22 197.331 33.3 197.351 33.36C197.251 33.76 197.011 34.31 196.631 35.01C196.271 35.69 195.881 36.41 195.461 37.17C195.041 37.93 194.651 38.67 194.291 39.39C193.931 40.09 193.721 40.65 193.661 41.07C194.641 39.73 195.561 38.52 196.421 37.44C197.281 36.34 198.091 35.4 198.851 34.62C199.611 33.84 200.311 33.24 200.951 32.82C201.611 32.4 202.231 32.19 202.811 32.19C203.211 32.19 203.581 32.3 203.921 32.52C204.281 32.72 204.531 33.02 204.671 33.42C204.491 34.02 204.191 34.74 203.771 35.58C203.371 36.42 202.961 37.31 202.541 38.25C202.121 39.17 201.741 40.08 201.401 40.98C201.081 41.88 200.921 42.69 200.921 43.41C200.921 43.83 200.981 44.11 201.101 44.25C201.221 44.37 201.391 44.43 201.611 44.43C201.851 44.43 202.071 44.39 202.271 44.31C202.491 44.21 202.651 44.16 202.751 44.16C202.871 44.24 202.941 44.34 202.961 44.46C202.981 44.58 202.991 44.69 202.991 44.79C202.591 45.11 202.181 45.37 201.761 45.57C201.341 45.79 200.871 45.9 200.351 45.9C199.871 45.9 199.471 45.82 199.151 45.66C198.851 45.5 198.601 45.28 198.401 45C198.201 44.72 198.061 44.4 197.981 44.04C197.901 43.68 197.861 43.29 197.861 42.87C197.861 42.19 197.951 41.52 198.131 40.86C198.311 40.18 198.521 39.54 198.761 38.94C199.021 38.32 199.291 37.75 199.571 37.23C199.851 36.69 200.091 36.21 200.291 35.79ZM209.43 46.05C208.29 45.93 207.38 45.43 206.7 44.55C206.02 43.67 205.68 42.55 205.68 41.19C205.68 40.39 205.8 39.56 206.04 38.7C206.28 37.84 206.62 37.01 207.06 36.21C207.5 35.39 208.02 34.62 208.62 33.9C209.22 33.18 209.87 32.56 210.57 32.04C211.67 31.22 212.7 30.81 213.66 30.81C214.3 31.15 214.93 31.86 215.55 32.94C215.65 32.94 215.74 32.94 215.82 32.94C215.9 32.92 215.99 32.91 216.09 32.91C217.15 32.91 217.68 33.85 217.68 35.73C217.68 36.99 217.47 38.19 217.05 39.33C216.65 40.45 216.08 41.47 215.34 42.39C214.62 43.31 213.75 44.09 212.73 44.73C211.73 45.35 210.63 45.79 209.43 46.05ZM210.96 36.6C210.62 37.06 210.3 37.56 210 38.1C209.7 38.64 209.44 39.19 209.22 39.75C209 40.29 208.83 40.82 208.71 41.34C208.59 41.84 208.53 42.29 208.53 42.69C208.53 43.17 208.61 43.63 208.77 44.07C208.93 44.51 209.11 44.76 209.31 44.82C210.21 44.62 211.03 44.25 211.77 43.71C212.53 43.15 213.18 42.46 213.72 41.64C214.28 40.82 214.71 39.89 215.01 38.85C215.33 37.81 215.49 36.7 215.49 35.52C215.49 35 215.46 34.59 215.4 34.29C215.34 33.99 215.24 33.73 215.1 33.51C214.22 33.77 213.43 34.19 212.73 34.77C212.05 35.35 211.46 35.96 210.96 36.6ZM223.993 30.45C224.513 30.61 225.003 30.97 225.463 31.53C225.923 32.07 226.263 32.67 226.483 33.33C226.263 33.87 225.923 34.52 225.463 35.28C225.003 36.04 224.543 36.82 224.083 37.62C223.623 38.4 223.203 39.15 222.823 39.87C222.463 40.57 222.253 41.15 222.193 41.61C222.513 41.27 222.863 40.88 223.243 40.44C223.643 39.98 224.023 39.53 224.383 39.09C224.763 38.63 225.113 38.22 225.433 37.86C225.753 37.48 226.003 37.2 226.183 37.02C226.563 36.62 227.013 36.16 227.533 35.64C228.053 35.1 228.593 34.6 229.153 34.14C229.733 33.66 230.313 33.26 230.893 32.94C231.473 32.6 232.003 32.43 232.483 32.43C233.003 32.43 233.433 32.61 233.773 32.97C234.133 33.31 234.413 33.67 234.613 34.05C234.613 34.09 234.533 34.15 234.373 34.23C234.233 34.29 234.023 34.48 233.743 34.8C233.463 35.16 233.143 35.66 232.783 36.3C232.443 36.92 232.103 37.6 231.763 38.34C231.443 39.06 231.173 39.8 230.953 40.56C230.733 41.32 230.623 42.01 230.623 42.63C230.623 43.13 230.683 43.45 230.803 43.59C230.943 43.73 231.133 43.8 231.373 43.8C231.593 43.8 231.823 43.75 232.063 43.65C232.303 43.55 232.493 43.5 232.633 43.5C232.713 43.54 232.773 43.63 232.813 43.77C232.873 43.89 232.903 44 232.903 44.1C232.743 44.24 232.553 44.38 232.333 44.52C232.113 44.66 231.883 44.79 231.643 44.91C231.403 45.03 231.163 45.13 230.923 45.21C230.703 45.29 230.503 45.33 230.323 45.33C229.743 45.33 229.263 45.24 228.883 45.06C228.523 44.9 228.233 44.68 228.013 44.4C227.813 44.12 227.673 43.79 227.593 43.41C227.513 43.01 227.473 42.59 227.473 42.15C227.473 41.91 227.493 41.64 227.533 41.34C227.573 41.04 227.653 40.69 227.773 40.29C227.893 39.87 228.063 39.38 228.283 38.82C228.503 38.24 228.783 37.55 229.123 36.75C229.083 36.75 228.813 36.89 228.313 37.17C227.813 37.45 227.273 37.88 226.693 38.46C225.753 39.36 224.903 40.25 224.143 41.13C223.403 42.01 222.643 42.99 221.863 44.07C221.423 44.69 221.033 45.21 220.693 45.63C220.373 46.07 220.093 46.36 219.853 46.5C219.433 46.26 219.123 45.92 218.923 45.48C218.723 45.06 218.573 44.62 218.473 44.16C218.473 43.78 218.523 43.3 218.623 42.72C218.743 42.14 218.893 41.5 219.073 40.8C219.273 40.08 219.513 39.33 219.793 38.55C220.073 37.77 220.383 36.99 220.723 36.21C221.483 34.45 222.173 33.07 222.793 32.07C223.433 31.07 223.833 30.53 223.993 30.45ZM246.614 40.35C246.154 41.81 245.694 43.14 245.234 44.34C244.774 45.54 244.284 46.64 243.764 47.64C243.244 48.66 242.684 49.59 242.084 50.43C241.484 51.29 240.824 52.1 240.104 52.86C239.184 53.82 238.234 54.55 237.254 55.05C236.274 55.57 235.294 55.83 234.314 55.83C233.814 55.83 233.314 55.77 232.814 55.65C232.334 55.55 231.884 55.4 231.464 55.2C231.024 55.02 230.644 54.8 230.324 54.54C229.984 54.3 229.744 54.04 229.604 53.76C229.604 53.52 229.744 53.31 230.024 53.13C230.264 53.35 230.464 53.52 230.624 53.64C230.784 53.76 230.944 53.86 231.104 53.94C231.244 54.02 231.404 54.07 231.584 54.09C231.744 54.11 231.934 54.12 232.154 54.12C233.294 54.12 234.404 53.78 235.484 53.1C236.584 52.44 237.614 51.49 238.574 50.25C239.554 49.03 240.444 47.54 241.244 45.78C242.044 44.04 242.724 42.09 243.284 39.93C243.024 40.33 242.704 40.82 242.324 41.4C241.944 41.98 241.524 42.56 241.064 43.14C240.604 43.7 240.124 44.21 239.624 44.67C239.144 45.13 238.674 45.44 238.214 45.6C237.894 45.58 237.554 45.51 237.194 45.39C236.854 45.29 236.524 45.14 236.204 44.94C235.904 44.74 235.634 44.5 235.394 44.22C235.154 43.94 234.994 43.62 234.914 43.26C234.914 42.68 234.934 42.22 234.974 41.88C235.014 41.52 235.084 41.13 235.184 40.71C235.364 39.95 235.624 39.09 235.964 38.13C236.324 37.17 236.734 36.23 237.194 35.31C237.674 34.37 238.194 33.5 238.754 32.7C239.334 31.88 239.934 31.24 240.554 30.78C240.714 30.78 240.914 30.8 241.154 30.84C241.394 30.86 241.644 30.91 241.904 30.99C242.164 31.07 242.414 31.17 242.654 31.29C242.894 31.39 243.104 31.53 243.284 31.71C243.064 31.91 242.584 32.58 241.844 33.72C241.104 34.86 240.284 36.5 239.384 38.64C239.284 38.86 239.164 39.18 239.024 39.6C238.884 40.02 238.744 40.46 238.604 40.92C238.484 41.38 238.374 41.83 238.274 42.27C238.174 42.71 238.124 43.06 238.124 43.32C238.124 43.48 238.144 43.6 238.184 43.68C238.244 43.76 238.294 43.82 238.334 43.86C238.694 43.8 239.174 43.51 239.774 42.99C240.374 42.45 241.054 41.62 241.814 40.5C242.294 39.78 242.734 39.07 243.134 38.37C243.534 37.65 243.924 36.93 244.304 36.21C244.704 35.49 245.114 34.75 245.534 33.99C245.954 33.23 246.404 32.45 246.884 31.65C247.144 31.65 247.424 31.68 247.724 31.74C248.024 31.8 248.314 31.88 248.594 31.98C248.874 32.06 249.114 32.16 249.314 32.28C249.534 32.38 249.694 32.49 249.794 32.61C249.174 33.93 248.594 35.22 248.054 36.48C247.514 37.74 247.034 39.03 246.614 40.35Z" fill="#FF6467"/>
<g clip-path="url(#clip0_0_1)">
<path d="M185.822 23.4831C185.165 23.3466 184.513 23.497 183.991 23.8506L183.273 24.3336C183.203 24.3813 183.109 24.3618 183.063 24.2899C183.063 24.2899 182.599 23.5599 182.597 23.561C182.259 23.0284 181.721 22.6309 181.064 22.4944C179.75 22.2213 178.457 23.0958 178.176 24.4477C178.07 24.9584 178.124 25.4639 178.302 25.9102C178.302 25.9102 178.375 26.111 178.476 26.2704C178.578 26.4299 181.375 30.8301 181.375 30.8301C181.466 30.9737 181.606 31.0651 181.758 31.0968C181.91 31.1284 182.075 31.1002 182.216 31.0048C182.216 31.0048 186.534 28.0834 186.691 27.9775C186.847 27.8717 186.994 27.7163 186.994 27.7163C187.335 27.3781 187.586 26.9358 187.692 26.4251C187.973 25.0732 187.136 23.7561 185.822 23.4831ZM186.619 26.3618C186.537 26.3448 186.485 26.2626 186.503 26.178C186.643 25.5021 186.224 24.8434 185.567 24.7069C185.485 24.6898 185.433 24.6076 185.451 24.523C185.468 24.4384 185.549 24.3839 185.631 24.401C186.452 24.5716 186.975 25.395 186.8 26.2398C186.782 26.3244 186.702 26.3789 186.619 26.3618Z" fill="#FF6467"/>
</g>
<defs>
<clipPath id="clip0_0_1">
<rect width="12" height="10" fill="white" transform="translate(178.035 21) rotate(11.7393)"/>
</clipPath>
</defs>
</svg>
